<svg xmlns="http://www.w3.org/2000/svg" viewBox="0 0 220 160" fill="none"><defs>
  <linearGradient id="emerald" x1="0" y1="0" x2="1" y2="1"><stop offset="0" stop-color="#6affb8"/><stop offset=".48" stop-color="#19e68d"/><stop offset="1" stop-color="#05a977"/></linearGradient>
  <linearGradient id="teal" x1="0" y1="0" x2="1" y2="1"><stop offset="0" stop-color="#49f3dd"/><stop offset="1" stop-color="#13d28c"/></linearGradient>
  <linearGradient id="gold" x1="0" y1="0" x2="1" y2="1"><stop offset="0" stop-color="#ffe176"/><stop offset="1" stop-color="#f2a51a"/></linearGradient>
  <linearGradient id="blue" x1="0" y1="0" x2="1" y2="1"><stop offset="0" stop-color="#58d8ff"/><stop offset="1" stop-color="#287bff"/></linearGradient>
  <linearGradient id="red" x1="0" y1="0" x2="1" y2="1"><stop offset="0" stop-color="#ff7d83"/><stop offset="1" stop-color="#ff4657"/></linearGradient>
  <linearGradient id="violet" x1="0" y1="0" x2="1" y2="1"><stop offset="0" stop-color="#d4b6ff"/><stop offset="1" stop-color="#8b5cf6"/></linearGradient>
  <filter id="softGlow" x="-60%" y="-60%" width="220%" height="220%"><feGaussianBlur stdDeviation="3.2" result="b"/><feMerge><feMergeNode in="b"/><feMergeNode in="SourceGraphic"/></feMerge></filter>
  <filter id="deepShadow" x="-40%" y="-40%" width="180%" height="180%"><feDropShadow dx="0" dy="18" stdDeviation="18" flood-color="#000915" flood-opacity=".65"/></filter>
</defs><path d="M110 18 166 43v40c0 36-24 61-56 75-32-14-56-39-56-75V43l56-25Z" fill="#07202c" stroke="url(#emerald)" stroke-width="4" filter="url(#softGlow)"/><rect x="87" y="74" width="46" height="40" rx="8" fill="#d8efc4"/><path d="M96 74V61a14 14 0 0 1 28 0v13" stroke="#052327" stroke-width="7"/><circle cx="110" cy="94" r="5" fill="#052327"/></svg>
